<?xml version="1.0" encoding="UTF-8"?>
<svg id="Capa_1" data-name="Capa 1" xmlns="http://www.w3.org/2000/svg" version="1.1" viewBox="0 0 167.51 30">
  <defs>
    <style>
      .cls-1 {
        fill: #ffffff;
      }

      .cls-1, .cls-2 {
        stroke-width: 0px;
      }

      .cls-2 {
        fill: #ffffff;
      }
    </style>
  </defs>
  <g>
    <path class="cls-2" d="M8.95,21.9c-2.76-7.36,1.89-11.32,1.89-11.32-.57-2.58-2.2-2.71-2.68-2.69l-6.12,11.02,6.33,3.53.58-.54Z"/>
    <path class="cls-2" d="M13.88,7.89s2.24-2.26,5.84-2.03L11.76,1.37l-2.93,5.29c.73-.31,3.51-1.28,5.05,1.24Z"/>
    <path class="cls-2" d="M22.63,7.5l1.46,1.91s4.89,1.6,1.74,1.98l-4.63.1s-2.53.82-5.73,5.18c0,0-1.55,2.33-.29-2.88,0,0-4.74,4.81-3.63,6.79,0,0,6.48,2.81,4.31,2.76l-4.02.1s-.73.14-.99.38l8.62,4.81,9.77-17.4-6.62-3.74Z"/>
  </g>
  <path class="cls-2" d="M59.54,14.92c0,3.21-2.24,4.61-4.32,4.61-2.33,0-4.16-1.72-4.16-4.47,0-2.89,1.92-4.59,4.31-4.59s4.18,1.81,4.18,4.45ZM52.66,15.01c0,1.9,1.08,3.34,2.62,3.34s2.64-1.42,2.64-3.37c0-1.47-.74-3.32-2.6-3.32s-2.66,1.72-2.66,3.36Z"/>
  <path class="cls-2" d="M61.76,6.59h1.58v12.74h-1.58V6.59Z"/>
  <path class="cls-2" d="M65.64,13.48c0-1.11-.04-2.01-.07-2.84h1.4l.09,1.49h.04c.63-1.06,1.67-1.67,3.09-1.67,2.12,0,3.7,1.78,3.7,4.4,0,3.12-1.92,4.67-3.97,4.67-1.15,0-2.15-.5-2.67-1.36h-.04v4.72h-1.56v-9.4ZM67.2,15.8c0,.23.02.45.07.65.29,1.09,1.24,1.85,2.37,1.85,1.67,0,2.64-1.36,2.64-3.36,0-1.72-.92-3.21-2.58-3.21-1.08,0-2.1.75-2.39,1.94-.05.2-.11.43-.11.63v1.51Z"/>
  <path class="cls-2" d="M76.11,6.59h1.58v5.44h.04c.25-.45.65-.86,1.13-1.13.47-.27,1.02-.43,1.61-.43,1.17,0,3.03.72,3.03,3.69v5.17h-1.58v-4.99c0-1.4-.52-2.57-2.01-2.57-1.02,0-1.81.72-2.12,1.56-.09.23-.11.47-.11.75v5.24h-1.58V6.59Z"/>
  <path class="cls-2" d="M87.68,8.21c0,.54-.38.97-1.01.97-.57,0-.95-.43-.95-.97s.4-.99.99-.99.97.43.97.99ZM85.92,19.33v-8.69h1.58v8.69h-1.58Z"/>
  <path class="cls-2" d="M89.98,13c0-.91-.02-1.63-.07-2.35h1.4l.09,1.44h.04c.43-.81,1.44-1.61,2.87-1.61,1.2,0,3.07.72,3.07,3.69v5.17h-1.58v-5.01c0-1.4-.52-2.57-2.01-2.57-1.02,0-1.83.74-2.12,1.61-.07.2-.11.47-.11.74v5.22h-1.58v-6.33Z"/>
  <path class="cls-1" d="M122.85,15.48c.04,2.14,1.38,3.01,2.98,3.01,1.13,0,1.83-.2,2.41-.45l.29,1.13c-.55.25-1.52.56-2.91.56-2.67,0-4.27-1.78-4.27-4.4s1.54-4.67,4.07-4.67c2.85,0,3.59,2.47,3.59,4.07,0,.32-.02.56-.06.74h-6.1ZM127.48,14.35c.02-.99-.41-2.55-2.19-2.55-1.61,0-2.3,1.45-2.42,2.55h4.61Z"/>
  <path class="cls-1" d="M139.32,6.8v10.5c0,.77.04,1.65.07,2.24h-1.4l-.07-1.51h-.05c-.47.97-1.51,1.71-2.92,1.71-2.1,0-3.73-1.78-3.73-4.41-.02-2.89,1.79-4.65,3.89-4.65,1.35,0,2.22.63,2.62,1.31h.04v-5.18h1.56ZM137.75,14.39c0-.2-.02-.47-.07-.66-.23-.99-1.1-1.81-2.28-1.81-1.63,0-2.6,1.44-2.6,3.34,0,1.76.88,3.21,2.57,3.21,1.06,0,2.03-.72,2.31-1.88.05-.21.07-.43.07-.68v-1.51Z"/>
  <path class="cls-1" d="M143.54,8.41c0,.54-.38.97-1,.97-.57,0-.95-.43-.95-.97s.39-.99.99-.99.97.43.97.99ZM141.78,19.54v-8.69h1.58v8.69h-1.58Z"/>
  <path class="cls-1" d="M152.56,19.23c-.41.2-1.33.5-2.5.5-2.62,0-4.32-1.78-4.32-4.43s1.83-4.63,4.67-4.63c.93,0,1.76.23,2.19.47l-.36,1.2c-.38-.2-.97-.41-1.83-.41-1.99,0-3.07,1.49-3.07,3.28,0,2.01,1.29,3.25,3.01,3.25.9,0,1.49-.21,1.94-.41l.27,1.18Z"/>
  <path class="cls-1" d="M161.57,17.45c0,.75.04,1.49.13,2.08h-1.42l-.13-1.09h-.05c-.48.68-1.42,1.29-2.66,1.29-1.76,0-2.66-1.24-2.66-2.5,0-2.1,1.87-3.25,5.22-3.23v-.18c0-.7-.2-2.01-1.97-1.99-.83,0-1.67.23-2.28.65l-.36-1.06c.72-.45,1.78-.75,2.87-.75,2.65,0,3.3,1.81,3.3,3.53v3.25ZM160.04,15.1c-1.72-.04-3.68.27-3.68,1.96,0,1.04.68,1.51,1.47,1.51,1.15,0,1.88-.72,2.13-1.45.06-.18.07-.36.07-.5v-1.51Z"/>
  <path class="cls-1" d="M163.89,6.8h1.58v12.74h-1.58V6.8Z"/>
  <path class="cls-1" d="M117.27,14.05c-.09-1.73-.2-3.84-.2-5.37h-.04c-.44,1.44-.94,3.01-1.57,4.72l-2.19,6.03h-1.22l-2.03-5.92c-.59-1.77-1.07-3.36-1.42-4.83h-.04c-.04,1.55-.13,3.62-.24,5.5l-.33,5.33h-1.53l.87-12.43h2.05l2.12,6.01c.52,1.53.92,2.9,1.25,4.19h.04c.33-1.25.77-2.62,1.33-4.19l2.21-6.01h2.05l.78,12.43h-1.59l-.29-5.46Z"/>
  <path class="cls-2" d="M38.34,7.08c1-.17,2.2-.28,3.5-.28,2.37,0,4.05.57,5.17,1.59,1.15,1.04,1.82,2.52,1.82,4.58s-.66,3.79-1.84,4.96c-1.21,1.19-3.18,1.84-5.66,1.84-1.19,0-2.16-.06-2.99-.15V7.08ZM39.98,18.36c.42.06,1.02.08,1.67.08,3.54,0,5.43-1.97,5.43-5.41.02-3.01-1.68-4.92-5.17-4.92-.85,0-1.5.08-1.93.17v10.09Z"/>
</svg>